# xmcd
#
# Track frame offsets: 
#        150
#        19469
#        38217
#        57526
#
# Disc length: 1015 seconds
#
# Revision: 1
# Processed by: cddbd v1.5.2PL0 Copyright (c) Steve Scherf et al.
# Submitted via: ExactAudioCopyFreeDBPlugin 1.0
#
DISCID=3403f504
DTITLE=Radio Aktive Projeqt - そりゃぁないよ
DYEAR=2006
DGENRE=Hip-Hop
TTITLE0=ウチの feat. Jun-GMC
TTITLE1=そりゃないよ
TTITLE2=ウチの instrumental
TTITLE3=そりゃないよ instrumental
EXTD=YEAR: 2014
EXTT0=
EXTT1=
EXTT2=
EXTT3=
PLAYORDER=
